<svg width="9" height="7" viewBox="0 0 9 7" fill="none" xmlns="http://www.w3.org/2000/svg">
<path d="M2.69252 4.5155C2.22093 4.76121 0.984455 5.26291 1.73755 5.89071C2.10544 6.19738 2.51516 6.41671 3.03029 6.41671H5.96971C6.48484 6.41671 6.89456 6.19738 7.26245 5.89071C8.01555 5.26291 6.77907 4.76121 6.30748 4.5155C5.2016 3.93933 3.7984 3.93933 2.69252 4.5155Z" stroke="#FD661F" stroke-opacity="0.85" style="stroke:#FD661F;stroke:color(display-p3 0.9922 0.4000 0.1216);stroke-opacity:0.85;" stroke-linecap="round" stroke-linejoin="round"/>
<path d="M6 1.89587C6 2.62075 5.32843 3.20837 4.5 3.20837C3.67157 3.20837 3 2.62075 3 1.89587C3 1.171 3.67157 0.583374 4.5 0.583374C5.32843 0.583374 6 1.171 6 1.89587Z" stroke="#FD661F" stroke-opacity="0.85" style="stroke:#FD661F;stroke:color(display-p3 0.9922 0.4000 0.1216);stroke-opacity:0.85;"/>
</svg>
