<svg width="42" height="7" viewBox="0 0 42 7" fill="none" xmlns="http://www.w3.org/2000/svg">
<path d="M2.90188 4.96954L1.72063 5.71954C1.56829 5.81563 1.38079 5.67266 1.42532 5.49688L1.76751 4.15157C1.77676 4.11428 1.77529 4.07513 1.76326 4.03864C1.75124 4.00215 1.72915 3.9698 1.69954 3.94532L0.640162 3.06172C0.501881 2.94688 0.572193 2.71485 0.752662 2.70313L2.13547 2.61407C2.1732 2.61187 2.20948 2.59873 2.23986 2.57626C2.27025 2.55378 2.29343 2.52294 2.30657 2.48751L2.82219 1.18907C2.83584 1.15155 2.86071 1.11913 2.89341 1.09623C2.92612 1.07332 2.96508 1.06104 3.00501 1.06104C3.04493 1.06104 3.08389 1.07332 3.1166 1.09623C3.1493 1.11913 3.17417 1.15155 3.18782 1.18907L3.70344 2.48751C3.71658 2.52294 3.73976 2.55378 3.77015 2.57626C3.80053 2.59873 3.83681 2.61187 3.87454 2.61407L5.25735 2.70313C5.43782 2.71485 5.50813 2.94688 5.36985 3.06172L4.31047 3.94532C4.28086 3.9698 4.25877 4.00215 4.24675 4.03864C4.23472 4.07513 4.23325 4.11428 4.24251 4.15157L4.55891 5.39844C4.61282 5.60938 4.38782 5.78047 4.20735 5.66563L3.10813 4.96954C3.07731 4.94994 3.04153 4.93953 3.00501 4.93953C2.96848 4.93953 2.93271 4.94994 2.90188 4.96954Z" fill="#E7E9EB" style="fill:#E7E9EB;fill:color(display-p3 0.9059 0.9137 0.9216);fill-opacity:1;"/>
<path d="M11.9019 4.96954L10.7206 5.71954C10.5683 5.81563 10.3808 5.67266 10.4253 5.49688L10.7675 4.15157C10.7768 4.11428 10.7753 4.07513 10.7633 4.03864C10.7512 4.00215 10.7291 3.9698 10.6995 3.94532L9.64016 3.06172C9.50188 2.94688 9.57219 2.71485 9.75266 2.70313L11.1355 2.61407C11.1732 2.61187 11.2095 2.59873 11.2399 2.57626C11.2702 2.55378 11.2934 2.52294 11.3066 2.48751L11.8222 1.18907C11.8358 1.15155 11.8607 1.11913 11.8934 1.09623C11.9261 1.07332 11.9651 1.06104 12.005 1.06104C12.0449 1.06104 12.0839 1.07332 12.1166 1.09623C12.1493 1.11913 12.1742 1.15155 12.1878 1.18907L12.7034 2.48751C12.7166 2.52294 12.7398 2.55378 12.7701 2.57626C12.8005 2.59873 12.8368 2.61187 12.8745 2.61407L14.2573 2.70313C14.4378 2.71485 14.5081 2.94688 14.3698 3.06172L13.3105 3.94532C13.2809 3.9698 13.2588 4.00215 13.2467 4.03864C13.2347 4.07513 13.2333 4.11428 13.2425 4.15157L13.5589 5.39844C13.6128 5.60938 13.3878 5.78047 13.2073 5.66563L12.1081 4.96954C12.0773 4.94994 12.0415 4.93953 12.005 4.93953C11.9685 4.93953 11.9327 4.94994 11.9019 4.96954Z" fill="#FFC27A" style="fill:#FFC27A;fill:color(display-p3 1.0000 0.7608 0.4792);fill-opacity:1;"/>
<path d="M20.9019 4.96954L19.7206 5.71954C19.5683 5.81563 19.3808 5.67266 19.4253 5.49688L19.7675 4.15157C19.7768 4.11428 19.7753 4.07513 19.7633 4.03864C19.7512 4.00215 19.7291 3.9698 19.6995 3.94532L18.6402 3.06172C18.5019 2.94688 18.5722 2.71485 18.7527 2.70313L20.1355 2.61407C20.1732 2.61187 20.2095 2.59873 20.2399 2.57626C20.2702 2.55378 20.2934 2.52294 20.3066 2.48751L20.8222 1.18907C20.8358 1.15155 20.8607 1.11913 20.8934 1.09623C20.9261 1.07332 20.9651 1.06104 21.005 1.06104C21.0449 1.06104 21.0839 1.07332 21.1166 1.09623C21.1493 1.11913 21.1742 1.15155 21.1878 1.18907L21.7034 2.48751C21.7166 2.52294 21.7398 2.55378 21.7701 2.57626C21.8005 2.59873 21.8368 2.61187 21.8745 2.61407L23.2573 2.70313C23.4378 2.71485 23.5081 2.94688 23.3698 3.06172L22.3105 3.94532C22.2809 3.9698 22.2588 4.00215 22.2467 4.03864C22.2347 4.07513 22.2333 4.11428 22.2425 4.15157L22.5589 5.39844C22.6128 5.60938 22.3878 5.78047 22.2073 5.66563L21.1081 4.96954C21.0773 4.94994 21.0415 4.93953 21.005 4.93953C20.9685 4.93953 20.9327 4.94994 20.9019 4.96954Z" fill="#FFC27A" style="fill:#FFC27A;fill:color(display-p3 1.0000 0.7608 0.4792);fill-opacity:1;"/>
<path d="M29.9019 4.96954L28.7206 5.71954C28.5683 5.81563 28.3808 5.67266 28.4253 5.49688L28.7675 4.15157C28.7768 4.11428 28.7753 4.07513 28.7633 4.03864C28.7512 4.00215 28.7291 3.9698 28.6995 3.94532L27.6402 3.06172C27.5019 2.94688 27.5722 2.71485 27.7527 2.70313L29.1355 2.61407C29.1732 2.61187 29.2095 2.59873 29.2399 2.57626C29.2702 2.55378 29.2934 2.52294 29.3066 2.48751L29.8222 1.18907C29.8358 1.15155 29.8607 1.11913 29.8934 1.09623C29.9261 1.07332 29.9651 1.06104 30.005 1.06104C30.0449 1.06104 30.0839 1.07332 30.1166 1.09623C30.1493 1.11913 30.1742 1.15155 30.1878 1.18907L30.7034 2.48751C30.7166 2.52294 30.7398 2.55378 30.7701 2.57626C30.8005 2.59873 30.8368 2.61187 30.8745 2.61407L32.2573 2.70313C32.4378 2.71485 32.5081 2.94688 32.3698 3.06172L31.3105 3.94532C31.2809 3.9698 31.2588 4.00215 31.2467 4.03864C31.2347 4.07513 31.2333 4.11428 31.2425 4.15157L31.5589 5.39844C31.6128 5.60938 31.3878 5.78047 31.2073 5.66563L30.1081 4.96954C30.0773 4.94994 30.0415 4.93953 30.005 4.93953C29.9685 4.93953 29.9327 4.94994 29.9019 4.96954Z" fill="#FFC27A" style="fill:#FFC27A;fill:color(display-p3 1.0000 0.7608 0.4792);fill-opacity:1;"/>
<path d="M38.9019 4.96954L37.7206 5.71954C37.5683 5.81563 37.3808 5.67266 37.4253 5.49688L37.7675 4.15157C37.7768 4.11428 37.7753 4.07513 37.7633 4.03864C37.7512 4.00215 37.7291 3.9698 37.6995 3.94532L36.6402 3.06172C36.5019 2.94688 36.5722 2.71485 36.7527 2.70313L38.1355 2.61407C38.1732 2.61187 38.2095 2.59873 38.2399 2.57626C38.2702 2.55378 38.2934 2.52294 38.3066 2.48751L38.8222 1.18907C38.8358 1.15155 38.8607 1.11913 38.8934 1.09623C38.9261 1.07332 38.9651 1.06104 39.005 1.06104C39.0449 1.06104 39.0839 1.07332 39.1166 1.09623C39.1493 1.11913 39.1742 1.15155 39.1878 1.18907L39.7034 2.48751C39.7166 2.52294 39.7398 2.55378 39.7701 2.57626C39.8005 2.59873 39.8368 2.61187 39.8745 2.61407L41.2573 2.70313C41.4378 2.71485 41.5081 2.94688 41.3698 3.06172L40.3105 3.94532C40.2809 3.9698 40.2588 4.00215 40.2467 4.03864C40.2347 4.07513 40.2333 4.11428 40.2425 4.15157L40.5589 5.39844C40.6128 5.60938 40.3878 5.78047 40.2073 5.66563L39.1081 4.96954C39.0773 4.94994 39.0415 4.93953 39.005 4.93953C38.9685 4.93953 38.9327 4.94994 38.9019 4.96954Z" fill="#FFC27A" style="fill:#FFC27A;fill:color(display-p3 1.0000 0.7608 0.4792);fill-opacity:1;"/>
</svg>
