<svg width="50" height="47" viewBox="0 0 50 47" fill="none" xmlns="http://www.w3.org/2000/svg">
<g clip-path="url(#clip0_179_19135)">
<path d="M1.53081 13.6412C0.112784 14.5829 -0.72178 16.5729 0.847644 18.9528C2.41707 21.3328 24.8211 37.4037 25.6445 37.8487C26.4643 38.2938 27.2878 38.3711 29.3779 36.8078C31.468 35.2444 48.9422 23.0395 49.3927 22.6717C50.1091 22.0868 50.29 20.6633 49.3927 19.9938C49.3927 19.9938 28.2258 34.7221 27.5315 35.318C26.8373 35.9139 25.759 34.9465 25.9621 33.6811C26.1652 32.4158 26.3166 32.2686 29.005 30.3338C31.6933 28.3989 46.937 17.658 47.6312 17.1798C48.4141 16.6428 48.4326 15.6901 47.1512 14.8514C45.3676 13.6817 26.0914 0.936055 25.4488 0.490969C24.8026 0.0458833 23.9089 -0.362419 22.5648 0.531431C21.2169 1.42528 4.14159 11.9124 1.53081 13.6412Z" fill="url(#paint0_linear_179_19135)" style=""/>
<path d="M25.6446 39.4157C25.1054 39.1214 15.2753 32.103 8.13349 26.6406V38.0363C8.1261 46.3531 33.3292 50.7966 41.6785 40.5744V29.6827C36.5493 33.2875 30.5522 37.5029 29.3779 38.3784C27.2878 39.9417 26.4644 39.8645 25.6446 39.4194V39.4157Z" fill="url(#paint1_linear_179_19135)" style=""/>
<path d="M36.3093 26.9238C36.3093 26.9238 40.0574 28.6747 40.3233 35.7262L38.5065 35.2591L37.0552 38.1282C36.4422 30.4109 33.0966 29.289 33.0966 29.289L36.313 26.9238H36.3093Z" fill="url(#paint2_linear_179_19135)" style=""/>
</g>
<defs>
<linearGradient id="paint0_linear_179_19135" x1="24.9999" y1="0" x2="24.9999" y2="38.1273" gradientUnits="userSpaceOnUse">
<stop stop-color="#1E3322" style="stop-color:#1E3322;stop-color:color(display-p3 0.1176 0.2000 0.1333);stop-opacity:1;"/>
<stop offset="1" stop-color="#3F6745" style="stop-color:#3F6745;stop-color:color(display-p3 0.2471 0.4039 0.2706);stop-opacity:1;"/>
</linearGradient>
<linearGradient id="paint1_linear_179_19135" x1="24.906" y1="26.6406" x2="24.906" y2="46.4957" gradientUnits="userSpaceOnUse">
<stop stop-color="#1E3322" style="stop-color:#1E3322;stop-color:color(display-p3 0.1176 0.2000 0.1333);stop-opacity:1;"/>
<stop offset="1" stop-color="#3F6745" style="stop-color:#3F6745;stop-color:color(display-p3 0.2471 0.4039 0.2706);stop-opacity:1;"/>
</linearGradient>
<linearGradient id="paint2_linear_179_19135" x1="36.7099" y1="26.9238" x2="36.7099" y2="38.1282" gradientUnits="userSpaceOnUse">
<stop stop-color="#1E3322" style="stop-color:#1E3322;stop-color:color(display-p3 0.1176 0.2000 0.1333);stop-opacity:1;"/>
<stop offset="1" stop-color="#3F6745" style="stop-color:#3F6745;stop-color:color(display-p3 0.2471 0.4039 0.2706);stop-opacity:1;"/>
</linearGradient>
<clipPath id="clip0_179_19135">
<rect width="49.9997" height="46.4957" fill="white" style="fill:white;fill-opacity:1;"/>
</clipPath>
</defs>
</svg>
