<svg width="48" height="48" viewBox="0 0 48 48" fill="none" xmlns="http://www.w3.org/2000/svg">
<circle cx="24" cy="24" r="24" fill="url(#paint0_linear_141_32686)" style=""/>
<path fill-rule="evenodd" clip-rule="evenodd" d="M33.9624 17.9759C33.8245 17.9759 33.5737 18.1014 33.4357 18.1515C33.0846 18.2895 32.0815 18.5529 31.7304 18.5529C32.1442 18.1891 32.2194 18.2644 32.7461 17.6247C33.2226 17.0352 33.21 16.8094 33.4483 16.3328C33.21 16.383 33.0596 16.5335 32.8464 16.6338C32.6332 16.7341 32.4326 16.822 32.2194 16.8972C31.7931 17.0728 31.2915 17.1982 30.8276 17.2986C30.4765 16.7718 29.4107 16.245 28.6834 16.0945C27.279 15.806 26.1881 16.1948 25.1348 17.0352C24.7586 17.3362 24.4075 17.8129 24.1944 18.2393C23.9561 18.716 23.6552 19.6818 23.7429 20.2964C23.7806 20.5222 23.768 20.8985 23.8433 21.049C23.2665 20.911 22.5517 21.0114 21.1599 20.5723C20.7461 20.4469 20.3699 20.334 19.9686 20.1584C19.5799 19.9953 19.2414 19.8198 18.8903 19.6442C18 19.1801 17.0972 18.4777 16.3574 17.8003C16.2821 17.7251 16.2194 17.6623 16.1442 17.5871C15.9687 17.4115 15.5172 16.8596 15.3793 16.7592C15.2915 17.1606 14.4765 18.2268 14.9781 19.9326C15.4545 21.5382 16.4702 22.0524 16.5831 22.228C16.0063 22.228 15.279 21.9772 14.79 21.7263C14.79 23.2691 15.5799 24.5485 16.7085 25.276C16.9969 25.4641 17.3229 25.6021 17.6489 25.7025L17.9749 25.8153C17.9749 25.8153 17.9875 25.8154 18 25.8279C17.8119 25.8404 17.536 25.9282 17.1473 25.9408C16.7586 25.9659 16.558 25.8906 16.2445 25.8655C16.5329 27.1198 17.9122 28.3616 19.2414 28.6375C19.4295 28.6752 19.7806 28.7504 19.9812 28.7504C19.7053 29.1518 18.0752 29.9169 17.4483 30.0925C16.5329 30.3434 15.931 30.4688 14.9404 30.4688C14.5643 30.4688 14.3511 30.4312 14 30.4312L14.1379 30.519C15.1787 31.1085 15.4044 31.2716 16.6959 31.7106C18.815 32.4256 21.5611 32.4381 23.6928 31.8109C24.1944 31.6604 24.6959 31.4848 25.1473 31.2716C25.3856 31.1587 25.6113 31.0709 25.837 30.9455C27.2163 30.1051 27.4671 29.9671 28.6708 28.7755C30.3386 27.1198 31.6301 24.2224 31.8683 21.9897C31.9436 21.3375 31.9561 20.773 31.9561 20.0455C32.2445 19.895 32.8088 19.3682 33.0596 19.1173C33.1724 19.0045 33.1975 18.9417 33.2978 18.8414C33.4357 18.6909 33.9122 18.139 33.9498 17.9759H33.9624Z" fill="white" style="fill:white;fill-opacity:1;"/>
<path fill-rule="evenodd" clip-rule="evenodd" d="M33.9623 17.976H33.9999L33.9623 17.9258V17.976Z" fill="white" style="fill:white;fill-opacity:1;"/>
<defs>
<linearGradient id="paint0_linear_141_32686" x1="24" y1="0" x2="24" y2="48" gradientUnits="userSpaceOnUse">
<stop stop-color="#FD661F" stop-opacity="0.85" style="stop-color:#FD661F;stop-color:color(display-p3 0.9922 0.4000 0.1216);stop-opacity:0.85;"/>
<stop offset="1" stop-color="#FFA337" style="stop-color:#FFA337;stop-color:color(display-p3 1.0000 0.6380 0.2167);stop-opacity:1;"/>
</linearGradient>
</defs>
</svg>
