<svg width="37" height="27" viewBox="0 0 37 27" fill="none" xmlns="http://www.w3.org/2000/svg">
<path d="M10.2268 0.0825195H6.13606C2.7525 0.0825195 0 2.6431 0 5.79075V9.59623C0 12.7439 2.7525 15.3045 6.13606 15.3045H10.2268C10.8835 15.3045 11.5044 15.1828 12.0981 15.0041C11.2734 19.4856 7.09614 22.9154 2.04535 22.9154C0.914818 22.9154 0 23.7665 0 24.8182C0 25.8699 0.914818 26.7209 2.04535 26.7209C9.93918 26.7209 16.3628 20.7452 16.3628 13.4017V5.79075C16.3628 2.6431 13.6103 0.0825195 10.2268 0.0825195ZM30.6803 0.0825195H26.5896C23.206 0.0825195 20.4535 2.6431 20.4535 5.79075V9.59623C20.4535 12.7439 23.206 15.3045 26.5896 15.3045H30.6803C31.337 15.3045 31.9579 15.1828 32.5516 15.0041C31.7269 19.4856 27.5497 22.9154 22.4989 22.9154C21.3683 22.9154 20.4535 23.7665 20.4535 24.8182C20.4535 25.8699 21.3683 26.7209 22.4989 26.7209C30.3927 26.7209 36.8163 20.7452 36.8163 13.4017V5.79075C36.8163 2.6431 34.0638 0.0825195 30.6803 0.0825195Z" fill="#FD661F" fill-opacity="0.85" style="fill:#FD661F;fill:color(display-p3 0.9922 0.4000 0.1216);fill-opacity:0.85;"/>
<path d="M12.5899 15.0946L12.7381 14.2893L11.954 14.5253C11.3921 14.6945 10.8212 14.8045 10.2268 14.8045H6.13606C2.99399 14.8045 0.5 12.4343 0.5 9.59623V5.79075C0.5 2.95267 2.99399 0.58252 6.13606 0.58252H10.2268C13.3688 0.58252 15.8628 2.95267 15.8628 5.79075V13.4017C15.8628 20.4356 9.69769 26.2209 2.04535 26.2209C1.15631 26.2209 0.5 25.5603 0.5 24.8182C0.5 24.076 1.15631 23.4154 2.04535 23.4154C7.31849 23.4154 11.7182 19.8314 12.5899 15.0946ZM33.0434 15.0946L33.1916 14.2893L32.4075 14.5253C31.8456 14.6945 31.2747 14.8045 30.6803 14.8045H26.5896C23.4475 14.8045 20.9535 12.4343 20.9535 9.59623V5.79075C20.9535 2.95267 23.4475 0.58252 26.5896 0.58252H30.6803C33.8223 0.58252 36.3163 2.95266 36.3163 5.79075V13.4017C36.3163 20.4356 30.1512 26.2209 22.4989 26.2209C21.6098 26.2209 20.9535 25.5603 20.9535 24.8182C20.9535 24.076 21.6098 23.4154 22.4989 23.4154C27.772 23.4154 32.1717 19.8314 33.0434 15.0946Z" stroke="black" stroke-opacity="0.1" style="stroke:black;stroke-opacity:0.1;"/>
</svg>
