<svg width="58" height="60" viewBox="0 0 58 60" fill="none" xmlns="http://www.w3.org/2000/svg">
<ellipse cx="29" cy="29.7209" rx="29" ry="29.5" fill="#FAB27B" style="fill:#FAB27B;fill:color(display-p3 0.9804 0.6980 0.4824);fill-opacity:1;"/>
<g clip-path="url(#clip0_218_1251)">
<path d="M31.379 11.6385C31.379 11.6385 34.779 10.1341 37.6336 12.8556C40.4883 15.577 38.4758 17.3958 40.9936 18.7431C43.5159 20.0903 41.6718 23.8222 44.6152 25.5198C47.5585 27.2173 45.617 31.4028 42.5894 32.0001C42.5894 32.0001 41.1355 35.8802 37.9484 35.5075C37.9484 35.5075 35.0006 38.8262 29.2558 36.72L27.1414 35.8398L31.379 11.6385Z" fill="black" style="fill:black;fill-opacity:1;"/>
<path d="M20.1864 12.7837C20.1864 12.7837 16.3654 13.2822 15.6251 16.7222C14.8849 20.1622 15.1552 19.3493 13.0541 21.0963C10.9575 22.8477 13.6082 24.8282 11.9415 26.5796C11.0904 27.4733 10.6915 28.2053 10.6073 29.0496C10.4654 30.5316 11.4761 31.8564 12.8946 32.265C13.8609 32.5435 14.6499 33.4686 15.2262 34.7305C16.3654 37.2319 20.4435 36.1452 20.4435 36.1452C20.4435 36.1452 24.2955 38.4175 26.6537 36.729C29.012 35.0404 25.4569 11.7822 25.4569 11.7822L20.182 12.7837H20.1864Z" fill="black" style="fill:black;fill-opacity:1;"/>
<path d="M32.1547 11.8271C32.1547 11.8271 30.6964 8.22095 25.4569 8.22095C20.2174 8.22095 18.5906 13.7537 18.5906 13.7537L26.2193 18.2266L32.1547 11.8271Z" fill="black" style="fill:black;fill-opacity:1;"/>
<path d="M21.2946 24.6441C21.8177 25.8252 21.7689 27.7248 20.6652 28.1469C19.5614 28.5691 18.2404 27.0467 17.7218 25.8701C17.2032 24.6935 17.5179 23.6651 18.6217 23.2429C19.7254 22.8208 20.7715 23.463 21.2902 24.6441H21.2946Z" fill="#CA927B" style="fill:#CA927B;fill:color(display-p3 0.7922 0.5725 0.4824);fill-opacity:1;"/>
<path d="M18.5906 24.6621C18.5906 24.6621 19.9426 24.2983 20.4479 26.1575" stroke="#995342" style="stroke:#995342;stroke:color(display-p3 0.6000 0.3255 0.2588);stroke-opacity:1;" stroke-width="0.48" stroke-linecap="round" stroke-linejoin="round"/>
<path d="M35.3241 24.6441C34.8011 25.8252 34.8498 27.7248 35.9536 28.1469C37.0573 28.5691 38.3783 27.0467 38.8969 25.8701C39.42 24.689 39.1008 23.6651 37.9971 23.2429C36.8933 22.8208 35.8472 23.463 35.3286 24.6441H35.3241Z" fill="#CA927B" style="fill:#CA927B;fill:color(display-p3 0.7922 0.5725 0.4824);fill-opacity:1;"/>
<path d="M38.0281 24.6621C38.0281 24.6621 36.6761 24.2983 36.1708 26.1575" stroke="#995342" style="stroke:#995342;stroke:color(display-p3 0.6000 0.3255 0.2588);stroke-opacity:1;" stroke-width="0.48" stroke-linecap="round" stroke-linejoin="round"/>
<path d="M28.2939 29.1528C33.4374 29.1528 37.607 25.0994 37.607 20.0992C37.607 15.0991 33.4374 11.0457 28.2939 11.0457C23.1504 11.0457 18.9807 15.0991 18.9807 20.0992C18.9807 25.0994 23.1504 29.1528 28.2939 29.1528Z" fill="black" style="fill:black;fill-opacity:1;"/>
<path d="M25.612 31.1243L24.4418 42.4188H31.379L30.1777 31.0076L25.612 31.1243Z" fill="#CA927B" style="fill:#CA927B;fill:color(display-p3 0.7922 0.5725 0.4824);fill-opacity:1;"/>
<path d="M25.4569 33.1183L30.8471 37.3487L30.2576 31.6677L25.4569 33.1183Z" fill="#995342" style="fill:#995342;fill:color(display-p3 0.6000 0.3255 0.2588);fill-opacity:1;"/>
<path d="M28.2938 12.1056C23.9896 12.1056 20.1908 15.4782 20.1908 19.6368L20.439 24.6306C20.439 24.6306 20.5277 31.7082 27.159 33.8638C27.8949 34.1018 28.6972 34.1018 29.433 33.8638C36.0644 31.7082 36.1531 24.6306 36.1531 24.6306L36.4013 19.6368C36.4013 15.4782 32.6024 12.1056 28.2983 12.1056H28.2938Z" fill="#CA927B" style="fill:#CA927B;fill:color(display-p3 0.7922 0.5725 0.4824);fill-opacity:1;"/>
<path d="M26.6581 28.632C26.6581 28.632 26.7379 29.6738 28.1386 29.6738C29.5394 29.6738 29.6191 28.632 29.6191 28.632H26.6581Z" fill="#DE5A62" style="fill:#DE5A62;fill:color(display-p3 0.8706 0.3529 0.3843);fill-opacity:1;"/>
<path d="M27.8284 25.7443V26.9029L28.6706 26.9119" stroke="#995342" style="stroke:#995342;stroke:color(display-p3 0.6000 0.3255 0.2588);stroke-opacity:1;" stroke-width="0.48" stroke-linecap="round" stroke-linejoin="round"/>
<path d="M26.4941 24.0467C26.4941 24.0467 25.9356 22.6096 24.5703 22.5423C23.205 22.4749 22.3894 23.5752 22.3894 23.5752C22.3894 23.5752 22.7352 24.7967 24.393 24.8775C26.0508 24.9584 26.4941 24.0467 26.4941 24.0467Z" fill="white" style="fill:white;fill-opacity:1;"/>
<mask id="mask0_218_1251" style="mask-type:luminance" maskUnits="userSpaceOnUse" x="22" y="22" width="5" height="3">
<path d="M26.4941 24.0467C26.4941 24.0467 25.9356 22.6096 24.5703 22.5423C23.205 22.4749 22.3894 23.5752 22.3894 23.5752C22.3894 23.5752 22.7352 24.7967 24.393 24.8775C26.0508 24.9584 26.4941 24.0467 26.4941 24.0467Z" fill="white" style="fill:white;fill-opacity:1;"/>
</mask>
<g mask="url(#mask0_218_1251)">
<path d="M23.0721 23.656C23.0366 24.415 23.6173 25.0617 24.3665 25.1021C25.1156 25.138 25.7539 24.5497 25.7938 23.7908C25.8293 23.0318 25.2486 22.3851 24.4994 22.3447C23.7503 22.3088 23.112 22.8971 23.0721 23.656Z" fill="black" style="fill:black;fill-opacity:1;"/>
</g>
<path d="M26.4941 24.0466C26.4941 24.0466 25.9799 22.5556 24.5703 22.5421C23.1607 22.5286 22.3894 23.575 22.3894 23.575" stroke="black" style="stroke:black;stroke-opacity:1;" stroke-width="0.38" stroke-linecap="round" stroke-linejoin="round"/>
<path d="M30.0226 24.0467C30.0226 24.0467 30.5811 22.6096 31.9464 22.5423C33.3117 22.4749 34.1273 23.5752 34.1273 23.5752C34.1273 23.5752 33.7815 24.7967 32.1237 24.8775C30.4659 24.9584 30.0226 24.0467 30.0226 24.0467Z" fill="white" style="fill:white;fill-opacity:1;"/>
<mask id="mask1_218_1251" style="mask-type:luminance" maskUnits="userSpaceOnUse" x="30" y="22" width="5" height="3">
<path d="M30.0226 24.0467C30.0226 24.0467 30.5811 22.6096 31.9464 22.5423C33.3117 22.4749 34.1273 23.5752 34.1273 23.5752C34.1273 23.5752 33.7815 24.7967 32.1237 24.8775C30.4659 24.9584 30.0226 24.0467 30.0226 24.0467Z" fill="white" style="fill:white;fill-opacity:1;"/>
</mask>
<g mask="url(#mask1_218_1251)">
<path d="M33.4447 23.656C33.4801 24.415 32.8994 25.0617 32.1503 25.1021C31.4012 25.138 30.7629 24.5497 30.723 23.7908C30.6875 23.0318 31.2682 22.3851 32.0173 22.3447C32.7665 22.3088 33.4048 22.8971 33.4447 23.656Z" fill="black" style="fill:black;fill-opacity:1;"/>
</g>
<path d="M30.0226 24.0466C30.0226 24.0466 30.5368 22.5556 31.9464 22.5421C33.356 22.5286 34.1273 23.575 34.1273 23.575" stroke="black" style="stroke:black;stroke-opacity:1;" stroke-width="0.38" stroke-linecap="round" stroke-linejoin="round"/>
<path d="M23.9719 19.1517C23.9719 19.1517 22.5933 19.3314 21.9284 19.7535C21.5162 20.014 21.5295 20.4945 22.0259 20.6607C22.4825 20.8133 23.4621 20.7145 24.0473 20.6472C25.4746 20.481 26.4232 19.9466 26.3301 19.4975C26.2104 18.9227 24.7255 19.017 23.9763 19.1517H23.9719Z" fill="black" style="fill:black;fill-opacity:1;"/>
<path d="M32.3276 19.1517C32.3276 19.1517 33.7062 19.3314 34.3711 19.7535C34.7834 20.014 34.7701 20.4945 34.2736 20.6607C33.817 20.8133 32.8374 20.7145 32.2523 20.6472C30.8249 20.481 29.8763 19.9466 29.9694 19.4975C30.0891 18.9227 31.5741 19.017 32.3232 19.1517H32.3276Z" fill="black" style="fill:black;fill-opacity:1;"/>
<path d="M29.6191 28.632C29.6191 28.632 28.2716 27.873 26.6581 28.632C26.6581 28.632 28.2805 29.3326 29.6191 28.632Z" fill="#DE5A62" style="fill:#DE5A62;fill:color(display-p3 0.8706 0.3529 0.3843);fill-opacity:1;"/>
<path d="M26.3168 28.5017C26.3168 28.5017 27.9524 29.4628 29.9073 28.5017" stroke="#995342" style="stroke:#995342;stroke:color(display-p3 0.6000 0.3255 0.2588);stroke-opacity:1;" stroke-width="0.48" stroke-linecap="round" stroke-linejoin="round"/>
<path d="M32.1547 11.8271C32.1547 11.8271 31.8045 15.7745 27.7442 16.3988C23.604 17.0365 24.4994 19.6861 19.4727 19.0529C19.4727 19.0529 17.6553 16.1697 20.3504 13.1923C22.1323 11.2208 25.6209 9.57716 28.1165 9.85559C28.9587 9.9499 30.949 11.5621 32.1592 11.8271H32.1547Z" fill="black" style="fill:black;fill-opacity:1;"/>
<path d="M31.6716 12.3167C31.6716 12.3167 29.8763 14.9483 37.6026 20.0993C37.6026 20.0993 38.8614 18.285 38.0281 16.6279C37.1903 14.9707 31.6716 12.3167 31.6716 12.3167Z" fill="black" style="fill:black;fill-opacity:1;"/>
<path d="M46.7385 49.9139C46.2952 47.7313 44.8102 46.0338 42.913 45.2479C42.7933 45.176 42.6692 45.1086 42.5362 45.0637L27.8329 39.6343L14.4327 45.1266C14.22 45.1985 14.0161 45.2838 13.8121 45.3826L13.79 45.3916C13.79 45.3916 13.7723 45.4005 13.7634 45.405C12.0258 46.2448 10.6826 47.8615 10.266 49.9139L10 51.2207H47L46.734 49.9139H46.7385Z" fill="white" style="fill:white;fill-opacity:1;"/>
<path d="M18.1163 43.6134L27.8329 39.63L38.2365 43.4742C38.2365 43.4742 37.6248 48.248 28.1432 48.248C18.6616 48.248 18.1163 43.6134 18.1163 43.6134Z" fill="#CA927B" style="fill:#CA927B;fill:color(display-p3 0.7922 0.5725 0.4824);fill-opacity:1;"/>
</g>
<defs>
<clipPath id="clip0_218_1251">
<rect width="37" height="43" fill="white" style="fill:white;fill-opacity:1;" transform="translate(10 8.22095)"/>
</clipPath>
</defs>
</svg>
