<svg width="59" height="60" viewBox="0 0 59 60" fill="none" xmlns="http://www.w3.org/2000/svg">
<ellipse cx="29.082" cy="29.7209" rx="29" ry="29.5" fill="#FAB27B" style="fill:#FAB27B;fill:color(display-p3 0.9804 0.6980 0.4824);fill-opacity:1;"/>
<g clip-path="url(#clip0_218_1261)">
<path d="M21.8022 25.9558C22.3341 27.1521 22.2898 29.0805 21.1638 29.5045C20.0379 29.9331 18.6948 28.3931 18.1629 27.1968C17.631 26.0004 17.9545 24.9648 19.0805 24.5363C20.2064 24.1078 21.2702 24.7595 21.8022 25.9558Z" fill="#E69874" style="fill:#E69874;fill:color(display-p3 0.9020 0.5961 0.4549);fill-opacity:1;"/>
<path d="M19.045 25.9736C19.045 25.9736 20.4236 25.6031 20.9378 27.4869" stroke="black" style="stroke:black;stroke-opacity:1;" stroke-width="0.49" stroke-linecap="round" stroke-linejoin="round"/>
<path d="M36.1022 25.9558C35.5702 27.1521 35.6146 29.0805 36.7405 29.5045C37.8664 29.9331 39.2095 28.3931 39.7414 27.1968C40.2734 26.0004 39.9498 24.9648 38.8239 24.5363C37.698 24.1078 36.6341 24.7595 36.1022 25.9558Z" fill="#E69874" style="fill:#E69874;fill:color(display-p3 0.9020 0.5961 0.4549);fill-opacity:1;"/>
<path d="M38.8593 25.9736C38.8593 25.9736 37.4807 25.6031 36.9666 27.4869" stroke="black" style="stroke:black;stroke-opacity:1;" stroke-width="0.49" stroke-linecap="round" stroke-linejoin="round"/>
<path d="M38.1929 23.0744C39.3497 17.9263 36.1432 12.8087 31.031 11.6438C25.9188 10.4789 20.8367 13.7079 19.68 18.856C18.5232 24.004 21.7297 29.1217 26.8419 30.2866C31.9541 31.4515 37.0361 28.2225 38.1929 23.0744Z" fill="#702D0B" style="fill:#702D0B;fill:color(display-p3 0.4392 0.1765 0.0431);fill-opacity:1;"/>
<path d="M25.7783 32.2586L24.4175 43.7083H32.4939L31.0976 32.1426L25.7783 32.2586Z" fill="#E69874" style="fill:#E69874;fill:color(display-p3 0.9020 0.5961 0.4549);fill-opacity:1;"/>
<path d="M25.5966 34.2807L31.8733 38.5705L31.1862 32.8121L25.5966 34.2807Z" fill="#CB6C4B" style="fill:#CB6C4B;fill:color(display-p3 0.7961 0.4235 0.2941);fill-opacity:1;"/>
<path d="M28.9389 13.2517C24.5505 13.2517 20.6763 16.671 20.6763 20.8848L20.9289 25.9424C20.9289 25.9424 21.0176 33.1157 27.7819 35.2985C28.5311 35.5396 29.3467 35.5396 30.0958 35.2985C36.8557 33.1157 36.9488 25.9424 36.9488 25.9424L37.2015 20.8848C37.2015 16.671 33.3273 13.2517 28.9389 13.2517Z" fill="#E69874" style="fill:#E69874;fill:color(display-p3 0.9020 0.5961 0.4549);fill-opacity:1;"/>
<path d="M28.3802 26.6165V28.2458L29.3732 28.2547" stroke="black" style="stroke:black;stroke-opacity:1;" stroke-width="0.49" stroke-linecap="round" stroke-linejoin="round"/>
<path d="M26.8199 25.2415C26.8199 25.2415 26.3279 23.7551 24.936 23.6122C23.5441 23.4694 22.6576 24.5407 22.6576 24.5407C22.6576 24.5407 22.9147 25.8932 24.5991 26.0629C26.2836 26.2325 26.8244 25.2415 26.8244 25.2415H26.8199Z" fill="white" style="fill:white;fill-opacity:1;"/>
<mask id="mask0_218_1261" style="mask-type:luminance" maskUnits="userSpaceOnUse" x="22" y="23" width="5" height="4">
<path d="M26.8199 25.2415C26.8199 25.2415 26.3279 23.7551 24.936 23.6122C23.5441 23.4694 22.6576 24.5407 22.6576 24.5407C22.6576 24.5407 22.9147 25.8932 24.5991 26.0629C26.2836 26.2325 26.8244 25.2415 26.8244 25.2415H26.8199Z" fill="white" style="fill:white;fill-opacity:1;"/>
</mask>
<g mask="url(#mask0_218_1261)">
<path d="M23.3491 24.6567C23.2738 25.429 23.8279 26.1164 24.5947 26.1923C25.3616 26.2682 26.0442 25.7102 26.1196 24.938C26.195 24.1657 25.6409 23.4783 24.874 23.4024C24.1071 23.3265 23.4245 23.8845 23.3491 24.6567Z" fill="black" style="fill:black;fill-opacity:1;"/>
</g>
<path d="M26.8199 25.2415C26.8199 25.2415 26.3767 23.7015 24.936 23.6122C23.4954 23.523 22.6576 24.5407 22.6576 24.5407" stroke="black" style="stroke:black;stroke-opacity:1;" stroke-width="0.38" stroke-linecap="round" stroke-linejoin="round"/>
<path d="M30.6765 25.2415C30.6765 25.2415 31.1685 23.7551 32.5604 23.6122C33.9523 23.4694 34.8433 24.5407 34.8433 24.5407C34.8433 24.5407 34.5862 25.8932 32.9017 26.0629C31.2173 26.2325 30.6765 25.2415 30.6765 25.2415Z" fill="white" style="fill:white;fill-opacity:1;"/>
<mask id="mask1_218_1261" style="mask-type:luminance" maskUnits="userSpaceOnUse" x="30" y="23" width="5" height="4">
<path d="M30.6765 25.2415C30.6765 25.2415 31.1685 23.7551 32.5604 23.6122C33.9523 23.4694 34.8433 24.5407 34.8433 24.5407C34.8433 24.5407 34.5862 25.8932 32.9017 26.0629C31.2173 26.2325 30.6765 25.2415 30.6765 25.2415Z" fill="white" style="fill:white;fill-opacity:1;"/>
</mask>
<g mask="url(#mask1_218_1261)">
<path d="M34.1473 24.6567C34.2227 25.429 33.6686 26.1164 32.9017 26.1923C32.1348 26.2682 31.4522 25.7102 31.3769 24.938C31.3015 24.1657 31.8556 23.4783 32.6224 23.4024C33.3893 23.3265 34.072 23.8845 34.1473 24.6567Z" fill="black" style="fill:black;fill-opacity:1;"/>
</g>
<path d="M30.6765 25.2415C30.6765 25.2415 31.1198 23.7015 32.5604 23.6122C34.0011 23.523 34.8433 24.5407 34.8433 24.5407" stroke="black" style="stroke:black;stroke-opacity:1;" stroke-width="0.38" stroke-linecap="round" stroke-linejoin="round"/>
<path d="M26.4387 29.5804C26.4387 29.5804 28.5443 30.7009 31.1551 29.5804" stroke="black" style="stroke:black;stroke-opacity:1;" stroke-width="0.49" stroke-linecap="round" stroke-linejoin="round"/>
<path d="M24.444 20.0144C24.444 20.0144 23.1231 20.0858 22.303 20.5412C21.7977 20.8224 21.7445 21.4652 22.3296 21.6839C22.6931 21.8178 23.7348 21.8312 24.4307 21.791C26.1418 21.6928 26.9929 21.0322 26.9219 20.617C26.82 20.0323 25.3483 19.9073 24.444 20.0189V20.0144Z" fill="#702D0B" style="fill:#702D0B;fill:color(display-p3 0.4392 0.1765 0.0431);fill-opacity:1;"/>
<path d="M33.2164 20.0144C33.2164 20.0144 34.5373 20.0858 35.3574 20.5412C35.8627 20.8224 35.9159 21.4652 35.3308 21.6839C34.9673 21.8178 33.9256 21.8312 33.2297 21.791C31.5186 21.6928 30.6675 21.0322 30.7385 20.617C30.8404 20.0323 32.3121 19.9073 33.2164 20.0189V20.0144Z" fill="#702D0B" style="fill:#702D0B;fill:color(display-p3 0.4392 0.1765 0.0431);fill-opacity:1;"/>
<path d="M27.8351 30.9865H29.75" stroke="#CB6C4B" style="stroke:#CB6C4B;stroke:color(display-p3 0.7961 0.4235 0.2941);stroke-opacity:1;" stroke-width="0.51" stroke-linecap="round" stroke-linejoin="round"/>
<path d="M33.4646 13.908C33.4646 13.908 34.3556 19.5324 37.9062 20.0368C37.9062 20.0368 38.7706 14.6266 33.4646 13.908Z" fill="#702D0B" style="fill:#702D0B;fill:color(display-p3 0.4392 0.1765 0.0431);fill-opacity:1;"/>
<path d="M35.3042 16.1488C35.3042 16.1488 31.7935 15.3542 28.0523 17.0058C24.3111 18.6575 18.2072 19.9787 17.3074 15.6712C16.3676 11.1806 20.6363 7.27917 29.9229 10.2521C37.2591 12.6 35.8362 15.2292 35.8362 15.2292L35.3042 16.1488Z" fill="#702D0B" style="fill:#702D0B;fill:color(display-p3 0.4392 0.1765 0.0431);fill-opacity:1;"/>
<path d="M36.4302 15.8363C36.4302 15.8363 35.8805 10.569 31.306 8.29688C30.9779 8.13618 30.5967 8.25224 30.3042 8.49329C29.7412 8.95306 29.5994 9.87708 29.9939 10.5466L30.8361 11.9706L36.4302 15.8407V15.8363Z" fill="#702D0B" style="fill:#702D0B;fill:color(display-p3 0.4392 0.1765 0.0431);fill-opacity:1;"/>
<path d="M39.3026 17.9164C39.2893 14.4748 37.37 14.0552 37.37 14.0552C36.2706 13.7025 35.1226 14.4703 35.1226 14.4703L37.6758 18.0815L37.5694 24.8621C37.5694 24.8621 39.3204 21.6704 39.3071 17.9119L39.3026 17.9164Z" fill="#702D0B" style="fill:#702D0B;fill:color(display-p3 0.4392 0.1765 0.0431);fill-opacity:1;"/>
<path d="M19.045 17.8896C19.9582 14.573 20.4192 14.0552 20.4192 14.0552C21.4476 13.7025 22.5292 14.4703 22.5292 14.4703L20.1355 18.0815L20.0468 24.3621C20.0468 24.3621 18.4688 19.9742 19.045 17.8851V17.8896Z" fill="#702D0B" style="fill:#702D0B;fill:color(display-p3 0.4392 0.1765 0.0431);fill-opacity:1;"/>
<path d="M46.8205 49.9219C46.3772 47.7525 44.8923 46.0652 42.9951 45.284C42.8754 45.2126 42.7513 45.1456 42.6183 45.101L27.9149 39.7042L14.5148 45.1635C14.302 45.2349 14.0981 45.3197 13.8942 45.4179L13.872 45.4268C13.872 45.4268 13.8543 45.4358 13.8454 45.4402C12.1078 46.275 10.7647 47.8819 10.348 49.9219L10.082 51.2209H47.082L46.8161 49.9219H46.8205Z" fill="white" style="fill:white;fill-opacity:1;"/>
<path d="M18.9209 43.3557C18.9209 43.3557 26.9264 50.0201 38.0925 43.3557L28.008 39.6552L18.9209 43.3557Z" fill="#E69874" style="fill:#E69874;fill:color(display-p3 0.9020 0.5961 0.4549);fill-opacity:1;"/>
</g>
<defs>
<clipPath id="clip0_218_1261">
<rect width="37" height="43" fill="white" style="fill:white;fill-opacity:1;" transform="translate(10.082 8.22095)"/>
</clipPath>
</defs>
</svg>
