<svg width="27" height="28" viewBox="0 0 27 28" fill="none" xmlns="http://www.w3.org/2000/svg">
<rect y="0.5" width="27" height="27" rx="13.5" fill="#B2C2B5" style="fill:#B2C2B5;fill:color(display-p3 0.6980 0.7608 0.7098);fill-opacity:1;"/>
<path d="M10.111 16.176C9.22675 16.7025 6.90835 17.7776 8.32041 19.1229C9.01019 19.78 9.77843 20.25 10.7443 20.25H16.2557C17.2216 20.25 17.9898 19.78 18.6796 19.1229C20.0916 17.7776 17.7732 16.7025 16.889 16.176C14.8155 14.9413 12.1845 14.9413 10.111 16.176Z" fill="#3F6745" style="fill:#3F6745;fill:color(display-p3 0.2471 0.4039 0.2706);fill-opacity:1;"/>
<path d="M16.3125 10.5625C16.3125 12.1158 15.0533 13.375 13.5 13.375C11.9467 13.375 10.6875 12.1158 10.6875 10.5625C10.6875 9.0092 11.9467 7.75 13.5 7.75C15.0533 7.75 16.3125 9.0092 16.3125 10.5625Z" fill="#3F6745" style="fill:#3F6745;fill:color(display-p3 0.2471 0.4039 0.2706);fill-opacity:1;"/>
</svg>
