<svg width="39" height="38" viewBox="0 0 39 38" fill="none" xmlns="http://www.w3.org/2000/svg">
<path d="M32.2842 10.6875H6.15918C5.50334 10.6875 4.97168 11.2192 4.97168 11.875V30.875C4.97168 31.5308 5.50334 32.0625 6.15918 32.0625H32.2842C32.94 32.0625 33.4717 31.5308 33.4717 30.875V11.875C33.4717 11.2192 32.94 10.6875 32.2842 10.6875Z" stroke="#6D737A" style="stroke:#6D737A;stroke:color(display-p3 0.4275 0.4510 0.4784);stroke-opacity:1;" stroke-width="1.5" stroke-linecap="round" stroke-linejoin="round"/>
<path d="M25.1592 10.6875V8.3125C25.1592 7.68261 24.909 7.07852 24.4636 6.63312C24.0182 6.18772 23.4141 5.9375 22.7842 5.9375H15.6592C15.0293 5.9375 14.4252 6.18772 13.9798 6.63312C13.5344 7.07852 13.2842 7.68261 13.2842 8.3125V10.6875" stroke="#6D737A" style="stroke:#6D737A;stroke:color(display-p3 0.4275 0.4510 0.4784);stroke-opacity:1;" stroke-width="1.5" stroke-linecap="round" stroke-linejoin="round"/>
<path d="M33.4717 18.7477C29.1407 21.2525 24.2248 22.5685 19.2217 22.5625C14.2176 22.5755 9.29993 21.259 4.97168 18.7477" stroke="#6D737A" style="stroke:#6D737A;stroke:color(display-p3 0.4275 0.4510 0.4784);stroke-opacity:1;" stroke-width="1.5" stroke-linecap="round" stroke-linejoin="round"/>
<path d="M17.4404 17.8125H21.0029" stroke="#6D737A" style="stroke:#6D737A;stroke:color(display-p3 0.4275 0.4510 0.4784);stroke-opacity:1;" stroke-width="1.5" stroke-linecap="round" stroke-linejoin="round"/>
</svg>
