<svg width="39" height="38" viewBox="0 0 39 38" fill="none" xmlns="http://www.w3.org/2000/svg">
<path d="M31.2822 30.875H7.53223C6.90234 30.875 6.29825 30.6248 5.85285 30.1794C5.40745 29.734 5.15723 29.1299 5.15723 28.5V11.875C5.15723 11.2451 5.40745 10.641 5.85285 10.1956C6.29825 9.75022 6.90234 9.5 7.53223 9.5H12.2822L14.6572 5.9375H24.1572L26.5322 9.5H31.2822C31.9121 9.5 32.5162 9.75022 32.9616 10.1956C33.407 10.641 33.6572 11.2451 33.6572 11.875V28.5C33.6572 29.1299 33.407 29.734 32.9616 30.1794C32.5162 30.6248 31.9121 30.875 31.2822 30.875Z" stroke="#6D737A" style="stroke:#6D737A;stroke:color(display-p3 0.4275 0.4510 0.4784);stroke-opacity:1;" stroke-width="1.5" stroke-linecap="round" stroke-linejoin="round"/>
<path d="M19.4072 24.9375C22.3585 24.9375 24.751 22.545 24.751 19.5938C24.751 16.6425 22.3585 14.25 19.4072 14.25C16.456 14.25 14.0635 16.6425 14.0635 19.5938C14.0635 22.545 16.456 24.9375 19.4072 24.9375Z" stroke="#6D737A" style="stroke:#6D737A;stroke:color(display-p3 0.4275 0.4510 0.4784);stroke-opacity:1;" stroke-width="1.5" stroke-linecap="round" stroke-linejoin="round"/>
</svg>
