<svg width="39" height="38" viewBox="0 0 39 38" fill="none" xmlns="http://www.w3.org/2000/svg">
<path d="M19.2217 19C26.4359 19 32.2842 15.81 32.2842 11.875C32.2842 7.93997 26.4359 4.75 19.2217 4.75C12.0075 4.75 6.15918 7.93997 6.15918 11.875C6.15918 15.81 12.0075 19 19.2217 19Z" stroke="#6D737A" style="stroke:#6D737A;stroke:color(display-p3 0.4275 0.4510 0.4784);stroke-opacity:1;" stroke-width="1.5" stroke-linecap="round" stroke-linejoin="round"/>
<path d="M6.15918 11.875V19C6.15918 22.9336 12.0076 26.125 19.2217 26.125C26.4357 26.125 32.2842 22.9336 32.2842 19V11.875" stroke="#6D737A" style="stroke:#6D737A;stroke:color(display-p3 0.4275 0.4510 0.4784);stroke-opacity:1;" stroke-width="1.5" stroke-linecap="round" stroke-linejoin="round"/>
<path d="M6.15918 19V26.125C6.15918 30.0586 12.0076 33.25 19.2217 33.25C26.4357 33.25 32.2842 30.0586 32.2842 26.125V19" stroke="#6D737A" style="stroke:#6D737A;stroke:color(display-p3 0.4275 0.4510 0.4784);stroke-opacity:1;" stroke-width="1.5" stroke-linecap="round" stroke-linejoin="round"/>
</svg>
