<svg width="39" height="38" viewBox="0 0 39 38" fill="none" xmlns="http://www.w3.org/2000/svg">
<path d="M11.5029 30.875C13.7984 30.875 15.6592 29.0142 15.6592 26.7188C15.6592 24.4233 13.7984 22.5625 11.5029 22.5625C9.2075 22.5625 7.34668 24.4233 7.34668 26.7188C7.34668 29.0142 9.2075 30.875 11.5029 30.875Z" stroke="#6D737A" style="stroke:#6D737A;stroke:color(display-p3 0.4275 0.4510 0.4784);stroke-opacity:1;" stroke-width="1.5" stroke-linecap="round" stroke-linejoin="round"/>
<path d="M26.9404 30.875C29.2359 30.875 31.0967 29.0142 31.0967 26.7188C31.0967 24.4233 29.2359 22.5625 26.9404 22.5625C24.645 22.5625 22.7842 24.4233 22.7842 26.7188C22.7842 29.0142 24.645 30.875 26.9404 30.875Z" stroke="#6D737A" style="stroke:#6D737A;stroke:color(display-p3 0.4275 0.4510 0.4784);stroke-opacity:1;" stroke-width="1.5" stroke-linecap="round" stroke-linejoin="round"/>
<path d="M15.6592 26.7188H22.7842" stroke="#6D737A" style="stroke:#6D737A;stroke:color(display-p3 0.4275 0.4510 0.4784);stroke-opacity:1;" stroke-width="1.5" stroke-linecap="round" stroke-linejoin="round"/>
<path d="M1.40918 17.8125H37.0342" stroke="#6D737A" style="stroke:#6D737A;stroke:color(display-p3 0.4275 0.4510 0.4784);stroke-opacity:1;" stroke-width="1.5" stroke-linecap="round" stroke-linejoin="round"/>
<path d="M6.15918 17.8126L13.4771 7.36256C13.5874 7.20418 13.7346 7.07506 13.906 6.98637C14.0774 6.89768 14.2678 6.85209 14.4607 6.85355C14.6537 6.85501 14.8434 6.90348 15.0134 6.99476C15.1835 7.08603 15.3287 7.21737 15.4365 7.3774L18.2271 11.5782C18.3351 11.7436 18.4825 11.8794 18.6562 11.9735C18.8298 12.0675 19.0242 12.1168 19.2217 12.1168C19.4192 12.1168 19.6135 12.0675 19.7872 11.9735C19.9608 11.8794 20.1083 11.7436 20.2162 11.5782L23.0068 7.3774C23.1147 7.21737 23.2599 7.08603 23.4299 6.99476C23.5999 6.90348 23.7896 6.85501 23.9826 6.85355C24.1756 6.85209 24.366 6.89768 24.5374 6.98637C24.7088 7.07506 24.856 7.20418 24.9662 7.36256L32.2842 17.8126" stroke="#6D737A" style="stroke:#6D737A;stroke:color(display-p3 0.4275 0.4510 0.4784);stroke-opacity:1;" stroke-width="1.5" stroke-linecap="round" stroke-linejoin="round"/>
</svg>
