<svg width="39" height="38" viewBox="0 0 39 38" fill="none" xmlns="http://www.w3.org/2000/svg">
<path d="M19.8145 22.5625C21.782 22.5625 23.377 20.9675 23.377 19C23.377 17.0325 21.782 15.4375 19.8145 15.4375C17.8469 15.4375 16.252 17.0325 16.252 19C16.252 20.9675 17.8469 22.5625 19.8145 22.5625Z" stroke="#6D737A" style="stroke:#6D737A;stroke:color(display-p3 0.4275 0.4510 0.4784);stroke-opacity:1;" stroke-width="1.5" stroke-linecap="round" stroke-linejoin="round"/>
<path d="M15.0645 11.875C17.032 11.875 18.627 10.28 18.627 8.3125C18.627 6.34499 17.032 4.75 15.0645 4.75C13.0969 4.75 11.502 6.34499 11.502 8.3125C11.502 10.28 13.0969 11.875 15.0645 11.875Z" stroke="#6D737A" style="stroke:#6D737A;stroke:color(display-p3 0.4275 0.4510 0.4784);stroke-opacity:1;" stroke-width="1.5" stroke-linecap="round" stroke-linejoin="round"/>
<path d="M30.502 19C32.4695 19 34.0645 17.405 34.0645 15.4375C34.0645 13.47 32.4695 11.875 30.502 11.875C28.5344 11.875 26.9395 13.47 26.9395 15.4375C26.9395 17.405 28.5344 19 30.502 19Z" stroke="#6D737A" style="stroke:#6D737A;stroke:color(display-p3 0.4275 0.4510 0.4784);stroke-opacity:1;" stroke-width="1.5" stroke-linecap="round" stroke-linejoin="round"/>
<path d="M30.502 30.875C32.4695 30.875 34.0645 29.28 34.0645 27.3125C34.0645 25.345 32.4695 23.75 30.502 23.75C28.5344 23.75 26.9395 25.345 26.9395 27.3125C26.9395 29.28 28.5344 30.875 30.502 30.875Z" stroke="#6D737A" style="stroke:#6D737A;stroke:color(display-p3 0.4275 0.4510 0.4784);stroke-opacity:1;" stroke-width="1.5" stroke-linecap="round" stroke-linejoin="round"/>
<path d="M9.12695 32.0625C11.0945 32.0625 12.6895 30.4675 12.6895 28.5C12.6895 26.5325 11.0945 24.9375 9.12695 24.9375C7.15944 24.9375 5.56445 26.5325 5.56445 28.5C5.56445 30.4675 7.15944 32.0625 9.12695 32.0625Z" stroke="#6D737A" style="stroke:#6D737A;stroke:color(display-p3 0.4275 0.4510 0.4784);stroke-opacity:1;" stroke-width="1.5" stroke-linecap="round" stroke-linejoin="round"/>
<path d="M18.3746 15.7492L16.5043 11.5632" stroke="#6D737A" style="stroke:#6D737A;stroke:color(display-p3 0.4275 0.4510 0.4784);stroke-opacity:1;" stroke-width="1.5" stroke-linecap="round" stroke-linejoin="round"/>
<path d="M27.1176 16.5657L23.1989 17.8719" stroke="#6D737A" style="stroke:#6D737A;stroke:color(display-p3 0.4275 0.4510 0.4784);stroke-opacity:1;" stroke-width="1.5" stroke-linecap="round" stroke-linejoin="round"/>
<path d="M27.6964 25.1304L22.6199 21.182" stroke="#6D737A" style="stroke:#6D737A;stroke:color(display-p3 0.4275 0.4510 0.4784);stroke-opacity:1;" stroke-width="1.5" stroke-linecap="round" stroke-linejoin="round"/>
<path d="M17.1574 21.3601L11.7839 26.1398" stroke="#6D737A" style="stroke:#6D737A;stroke:color(display-p3 0.4275 0.4510 0.4784);stroke-opacity:1;" stroke-width="1.5" stroke-linecap="round" stroke-linejoin="round"/>
</svg>
