<svg width="39" height="38" viewBox="0 0 39 38" fill="none" xmlns="http://www.w3.org/2000/svg">
<path d="M5.15723 19H11.0947L13.4697 15.4375L18.2197 22.5625L20.5947 19H24.1572" stroke="#6D737A" style="stroke:#6D737A;stroke:color(display-p3 0.4275 0.4510 0.4784);stroke-opacity:1;" stroke-width="1.5" stroke-linecap="round" stroke-linejoin="round"/>
<path d="M4.57832 14.25C4.56348 14.057 4.56348 13.8492 4.56348 13.6563C4.56348 11.8719 5.18171 10.1426 6.31299 8.76266C7.44427 7.38272 9.01872 6.43735 10.7685 6.0874C12.5182 5.73746 14.3351 6.00455 15.9101 6.84323C17.4851 7.68192 18.7209 9.04039 19.4072 10.6875V10.6875C20.0935 9.04039 21.3293 7.68192 22.9043 6.84323C24.4793 6.00455 26.2963 5.73746 28.046 6.0874C29.7957 6.43735 31.3702 7.38272 32.5015 8.76266C33.6327 10.1426 34.251 11.8719 34.251 13.6563C34.251 23.75 19.4072 32.0625 19.4072 32.0625C19.4072 32.0625 13.4846 28.7375 9.12051 23.75" stroke="#6D737A" style="stroke:#6D737A;stroke:color(display-p3 0.4275 0.4510 0.4784);stroke-opacity:1;" stroke-width="1.5" stroke-linecap="round" stroke-linejoin="round"/>
</svg>
