<svg width="39" height="38" viewBox="0 0 39 38" fill="none" xmlns="http://www.w3.org/2000/svg">
<path d="M25.752 22.5625C30.9987 22.5625 35.252 18.3092 35.252 13.0625C35.252 7.81579 30.9987 3.5625 25.752 3.5625C20.5052 3.5625 16.252 7.81579 16.252 13.0625C16.252 18.3092 20.5052 22.5625 25.752 22.5625Z" stroke="#6D737A" style="stroke:#6D737A;stroke:color(display-p3 0.4275 0.4510 0.4784);stroke-opacity:1;" stroke-width="1.5" stroke-linecap="round" stroke-linejoin="round"/>
<path d="M32.4762 19.7867L19.0277 6.33826" stroke="#6D737A" style="stroke:#6D737A;stroke:color(display-p3 0.4275 0.4510 0.4784);stroke-opacity:1;" stroke-width="1.5" stroke-linecap="round" stroke-linejoin="round"/>
<path d="M15.6582 23.1562L13.877 24.9375" stroke="#6D737A" style="stroke:#6D737A;stroke:color(display-p3 0.4275 0.4510 0.4784);stroke-opacity:1;" stroke-width="1.5" stroke-linecap="round" stroke-linejoin="round"/>
<path d="M16.3707 14.532L4.98557 30.0585C4.81443 30.2864 4.73209 30.5687 4.75394 30.8528C4.7758 31.1369 4.90035 31.4033 5.10432 31.6023L7.21213 33.7101C7.41109 33.9141 7.67752 34.0386 7.96162 34.0605C8.24572 34.0823 8.52806 34 8.75588 33.8289L24.2824 22.4437" stroke="#6D737A" style="stroke:#6D737A;stroke:color(display-p3 0.4275 0.4510 0.4784);stroke-opacity:1;" stroke-width="1.5" stroke-linecap="round" stroke-linejoin="round"/>
</svg>
