<svg width="39" height="38" viewBox="0 0 39 38" fill="none" xmlns="http://www.w3.org/2000/svg">
<path d="M17.626 23.75C19.2656 23.75 20.5947 22.4208 20.5947 20.7812C20.5947 19.1417 19.2656 17.8125 17.626 17.8125C15.9864 17.8125 14.6572 19.1417 14.6572 20.7812C14.6572 22.4208 15.9864 23.75 17.626 23.75Z" stroke="#6D737A" style="stroke:#6D737A;stroke:color(display-p3 0.4275 0.4510 0.4784);stroke-opacity:1;" stroke-width="1.5" stroke-linecap="round" stroke-linejoin="round"/>
<path d="M5.15723 33.25L15.533 22.8743" stroke="#6D737A" style="stroke:#6D737A;stroke:color(display-p3 0.4275 0.4510 0.4784);stroke-opacity:1;" stroke-width="1.5" stroke-linecap="round" stroke-linejoin="round"/>
<path d="M5.15723 33.25L25.8643 29.8063C26.0686 29.7714 26.2601 29.6829 26.4192 29.55C26.5782 29.417 26.6992 29.2442 26.7697 29.0492L30.0947 20.1875L18.2197 8.3125L9.35801 11.6375C9.16273 11.7119 8.99021 11.8359 8.85746 11.9973C8.7247 12.1587 8.63631 12.3519 8.60098 12.5578L5.15723 33.25Z" stroke="#6D737A" style="stroke:#6D737A;stroke:color(display-p3 0.4275 0.4510 0.4784);stroke-opacity:1;" stroke-width="1.5" stroke-linecap="round" stroke-linejoin="round"/>
<path d="M30.0947 20.1875L33.9986 16.2836C34.1108 16.1731 34.1999 16.0414 34.2608 15.8961C34.3216 15.7509 34.3529 15.595 34.3529 15.4375C34.3529 15.28 34.3216 15.1241 34.2608 14.9789C34.1999 14.8336 34.1108 14.7019 33.9986 14.5914L23.8158 4.40859C23.7053 4.29638 23.5736 4.20728 23.4284 4.14646C23.2831 4.08564 23.1272 4.05432 22.9697 4.05432C22.8123 4.05432 22.6563 4.08564 22.5111 4.14646C22.3658 4.20728 22.2341 4.29638 22.1236 4.40859L18.2197 8.31249" stroke="#6D737A" style="stroke:#6D737A;stroke:color(display-p3 0.4275 0.4510 0.4784);stroke-opacity:1;" stroke-width="1.5" stroke-linecap="round" stroke-linejoin="round"/>
</svg>
