<svg width="60" height="60" viewBox="0 0 60 60" fill="none" xmlns="http://www.w3.org/2000/svg">
<circle cx="30" cy="30" r="30" fill="url(#paint0_linear_141_38044)" style=""/>
<g clip-path="url(#clip0_141_38044)">
<path d="M49.0403 11.0152C47.6846 9.66159 45.4497 9.66159 44.094 11.0152L39.6175 15.4822L36.9732 13.9256C36.7718 13.7902 36.4966 13.8579 36.4295 14.0609L33.9866 17.7834C33.443 17.5804 32.8993 17.445 32.3624 17.3773L32.1611 12.9103C32.1611 12.7073 31.9597 12.5042 31.7517 12.5042H27.953C27.7517 12.5042 27.5436 12.7073 27.5436 12.9103L27.2752 17.3773C26.7315 17.5127 26.1879 17.6481 25.651 17.7834L23.2081 14.0609C23.0738 13.8579 22.8725 13.7902 22.6644 13.9256L19.4094 15.8206C19.2081 15.956 19.1409 16.1591 19.2752 16.3621L21.3087 20.3553C20.8993 20.6937 20.4966 21.0998 20.1544 21.5059L16.1544 19.4755C15.953 19.3401 15.6779 19.4755 15.6107 19.6108L13.7114 22.9272C13.5772 23.1303 13.6443 23.401 13.8456 23.4687L17.5705 25.9052C17.3691 26.4467 17.2282 26.9882 17.1611 27.5296L12.6846 27.7327C12.4832 27.7327 12.2752 27.9357 12.2752 28.1387V31.9289C12.2752 32.132 12.4765 32.335 12.6846 32.335L17.1611 32.5381C17.2953 33.0795 17.4295 33.621 17.5705 34.1624L13.8456 36.599C13.6443 36.7343 13.5772 36.9374 13.7114 37.1404L15.2685 39.78C10.0671 44.9915 11.4228 43.6379 11.2215 43.841C11.1544 43.9086 11.1544 43.9763 11.0872 44.044L10 49.4585C10 49.5939 10 49.7293 10.1342 49.8646C10.2013 49.9323 10.3356 50 10.4027 50H10.4698L15.8926 48.9171C15.9597 48.9171 16.0268 48.8494 16.094 48.7817L20.2282 44.6531L22.7383 46.0745C22.9396 46.2098 23.2148 46.1421 23.2819 45.9391L25.7248 42.2166C26.2685 42.4196 26.8121 42.555 27.349 42.6227L27.5503 47.0897C27.5503 47.2927 27.7517 47.4958 27.9597 47.4958H31.7584C31.9597 47.4958 32.1678 47.2927 32.1678 47.0897L32.3691 42.6227C32.9128 42.4873 33.4564 42.3519 33.9933 42.2166L36.4362 45.9391C36.5705 46.1421 36.7718 46.2098 36.9799 46.0745L40.2349 44.1794C40.4362 44.044 40.5034 43.841 40.3691 43.6379L38.3356 39.6447C38.745 39.3063 39.1477 38.9002 39.4899 38.4941L43.4899 40.5245C43.6913 40.6599 43.9664 40.5245 44.0336 40.3892L45.9329 37.1404C46.0671 36.9374 46 36.6667 45.7987 36.599L42.0738 34.1624C42.2752 33.621 42.4161 33.0795 42.4832 32.5381L46.9597 32.335C47.1611 32.335 47.3691 32.132 47.3691 31.9289V28.1387C47.3691 27.9357 47.1678 27.7327 46.9597 27.7327L42.4832 27.5296C42.349 26.9882 42.2148 26.4467 42.0738 25.9052L45.7987 23.4687C46 23.3333 46.0671 23.1303 45.9329 22.9272L44.5101 20.423L48.9799 15.956C49.6577 15.2792 49.9933 14.3993 49.9933 13.5195C50.0604 12.5719 49.7248 11.692 49.047 11.0152H49.0403ZM42.1946 21.5736L38.4698 17.8511L42.1946 14.1286L45.9195 17.8511L42.1946 21.5736ZM37.3154 30.0338C37.3154 34.1624 33.9933 37.4788 29.8591 37.4788C29.1141 37.4788 28.4362 37.4112 27.7584 37.2081L36.9732 28.0034C37.1745 28.6125 37.3087 29.357 37.3087 30.0338H37.3154ZM26.8792 36.8697C26.2013 36.599 25.6577 36.1929 25.1141 35.7868L40.094 20.6937L41.5839 22.1827C40.8389 22.9272 27.4161 36.3283 26.8725 36.8697H26.8792ZM22.4027 30.0338C22.4027 25.9052 25.7248 22.5888 29.8591 22.5888C30.6711 22.5888 31.4161 22.7242 32.1611 22.9272L22.7383 32.335C22.5369 31.5905 22.4027 30.846 22.4027 30.0338ZM37.8591 18.4602L39.4832 20.0846L24.5034 35.1777C23.9597 34.5685 23.4832 33.8917 23.0805 33.1472C23.7584 32.5381 37.2483 19.0694 37.8591 18.4602ZM13.3221 42.9611L15.6913 40.5922C15.8255 40.6599 15.9597 40.7276 16.1678 40.6599L20.1678 38.6294C20.302 38.7648 20.4362 38.9002 20.5772 39.1032L15.0872 44.7208L13.3221 42.9611ZM15.557 48.1726L10.8792 49.1201L11.8255 44.4501L12.7047 43.5702C13.651 44.5178 15.4832 46.3452 16.4295 47.2927L15.5503 48.1726H15.557ZM17.047 46.6836L15.6242 45.2623L21.1141 39.6447C21.1588 39.6898 21.2036 39.7349 21.2483 39.78L19.2148 43.7733C19.0805 43.9763 19.2148 44.247 19.349 44.3147L17.047 46.6836ZM45.0403 22.9949L41.3826 25.3638C41.2483 25.4992 41.1812 25.7022 41.2483 25.8376C41.5168 26.5144 41.6577 27.1912 41.7919 27.9357C41.7919 28.1387 41.9933 28.2741 42.2013 28.2741L46.604 28.4772V31.4552L42.2013 31.6582C42 31.6582 41.8658 31.7936 41.7919 31.9966C41.6577 32.7411 41.4564 33.4179 41.2483 34.0948C41.1812 34.2978 41.2483 34.5008 41.3826 34.5685L45.0403 36.9374L43.5503 39.6447L39.6175 37.6819C39.4161 37.6142 39.2081 37.6142 39.0738 37.8173C38.5973 38.3587 38.1275 38.9002 37.5168 39.3739C37.3826 39.5093 37.3154 39.7124 37.3826 39.9154L39.349 43.841L36.7718 45.33L34.5369 41.5398C34.4027 41.4044 34.2013 41.3367 34.0604 41.4044C33.3826 41.6751 32.7047 41.8105 31.9597 41.9459C31.7584 41.9459 31.6175 42.1489 31.6175 42.3519L31.349 46.7513H28.3691L28.1678 42.3519C28.1678 42.1489 28.0336 42.0135 27.8322 41.9459C27.0872 41.8105 26.4094 41.6074 25.7315 41.4044C25.5302 41.3367 25.3221 41.4044 25.255 41.5398L22.8859 45.1946L20.3087 43.7056L22.2752 39.78C22.3423 39.577 22.3423 39.3739 22.1409 39.2386C21.5973 38.8325 21.0537 38.291 20.5839 37.6819C20.4497 37.5465 20.2483 37.4789 20.0403 37.5465L16.1074 39.5093L14.6174 36.9374L18.2752 34.5685C18.4094 34.4332 18.4765 34.2301 18.4094 34.0948C18.1409 33.4179 18 32.7411 17.8658 31.9966C17.8658 31.7936 17.6644 31.6582 17.4564 31.6582L13.0537 31.4552V28.4772L17.4564 28.2741C17.6577 28.2741 17.7919 28.1387 17.8658 27.9357C18 27.1912 18.2013 26.5144 18.4094 25.8376C18.4765 25.6345 18.4094 25.4315 18.2752 25.3638L14.6174 22.9949L16.1074 20.423L20.0403 22.3858C20.2416 22.4535 20.4497 22.4535 20.5839 22.2504C21.0604 21.709 21.5302 21.1675 22.1409 20.6937C22.2752 20.5584 22.3423 20.3553 22.2752 20.1523L20.3087 16.2267L22.8859 14.7377L25.255 18.3926C25.3893 18.5279 25.5906 18.5956 25.7315 18.5279C26.4094 18.2572 27.0872 18.1218 27.8322 17.9865C28.0336 17.9865 28.1678 17.7834 28.1678 17.5804L28.3691 13.181H31.349L31.5503 17.5804C31.5503 17.7834 31.6846 17.9188 31.8859 17.9865C32.6309 18.1218 33.3087 18.3249 33.9866 18.5279C34.1879 18.5956 34.396 18.5279 34.4631 18.3926L36.8322 14.7377L38.9329 15.956L32.698 22.1827C31.7517 21.8443 30.7987 21.6413 29.7852 21.6413C25.1745 21.6413 21.4497 25.3638 21.4497 29.9662C21.4497 34.5685 25.1745 38.2234 29.7852 38.2234C34.396 38.3587 38.1208 34.6362 38.1208 30.0338C38.1208 29.0863 37.9866 28.1387 37.6443 27.2589L43.8792 21.0321L45.0336 22.9949H45.0403ZM48.4295 15.3469L46.5302 17.242L42.8054 13.5195L44.7047 11.6244C45.7181 10.6091 47.4161 10.6091 48.4295 11.6244C49.443 12.6396 49.443 14.3316 48.4295 15.3469Z" fill="white" style="fill:white;fill-opacity:1;"/>
<path d="M14.2013 17.648C15.8255 17.648 17.1812 16.2944 17.1812 14.67C17.1812 13.0457 15.8322 11.692 14.2013 11.692C12.5704 11.692 11.2214 13.0457 11.2214 14.67C11.2214 16.2944 12.51 17.648 14.2013 17.648ZM14.2013 12.5719C15.3557 12.5719 16.302 13.5194 16.302 14.67C16.302 15.8206 15.3557 16.7682 14.2013 16.7682C13.0469 16.7682 12.1006 15.8206 12.1006 14.67C12.0335 13.5194 12.9798 12.5719 14.2013 12.5719Z" fill="white" style="fill:white;fill-opacity:1;"/>
<path d="M45.9262 43.4348C44.7719 43.4348 43.8256 44.3824 43.8256 45.533C43.8256 46.6835 44.7719 47.6311 45.9262 47.6311C47.0806 47.6311 48.0269 46.6835 48.0269 45.533C48.094 44.3824 47.1477 43.4348 45.9262 43.4348ZM45.9262 46.8189C45.2484 46.8189 44.6376 46.2775 44.6376 45.533C44.6376 44.8561 45.1813 44.247 45.9262 44.247C46.6041 44.247 47.2148 44.7885 47.2148 45.533C47.2148 46.2098 46.6712 46.8189 45.9262 46.8189Z" fill="white" style="fill:white;fill-opacity:1;"/>
<path d="M48.2953 21.4382C48.6309 21.4382 48.906 21.709 48.906 22.0474C48.906 22.3858 48.6309 22.6565 48.2953 22.6565C47.9597 22.6565 47.6846 22.3858 47.6846 22.0474C47.6846 21.709 47.9597 21.4382 48.2953 21.4382Z" fill="white" style="fill:white;fill-opacity:1;"/>
<path d="M34.7383 10.8799C35.0739 10.8799 35.349 11.1506 35.349 11.489C35.349 11.8274 35.0739 12.0982 34.7383 12.0982C34.4027 12.0982 34.1276 11.8274 34.1276 11.489C34.1276 11.1506 34.4027 10.8799 34.7383 10.8799Z" fill="white" style="fill:white;fill-opacity:1;"/>
<path d="M19.8993 10.8799C20.2349 10.8799 20.5101 11.1506 20.5101 11.489C20.5101 11.8274 20.2349 12.0982 19.8993 12.0982C19.5637 12.0982 19.2886 11.8274 19.2886 11.489C19.2886 11.1506 19.5637 10.8799 19.8993 10.8799Z" fill="white" style="fill:white;fill-opacity:1;"/>
<path d="M12.2349 19.3401C12.5705 19.3401 12.8456 19.6108 12.8456 19.9492C12.8456 20.2876 12.5705 20.5584 12.2349 20.5584C11.8993 20.5584 11.6241 20.2876 11.6241 19.9492C11.6241 19.6108 11.8993 19.3401 12.2349 19.3401Z" fill="white" style="fill:white;fill-opacity:1;"/>
<path d="M11.4229 35.3807C11.7584 35.3807 12.0336 35.6515 12.0336 35.9899C12.0336 36.3283 11.7584 36.599 11.4229 36.599C11.0873 36.599 10.8121 36.3283 10.8121 35.9899C10.8121 35.6515 11.0873 35.3807 11.4229 35.3807Z" fill="white" style="fill:white;fill-opacity:1;"/>
<path d="M47.4162 39.2385C47.7517 39.2385 48.0269 39.5093 48.0269 39.8477C48.0269 40.1861 47.7517 40.4568 47.4162 40.4568C47.0806 40.4568 46.8054 40.1861 46.8054 39.8477C46.8054 39.5093 47.0806 39.2385 47.4162 39.2385Z" fill="white" style="fill:white;fill-opacity:1;"/>
<path d="M40.2282 46.4128C40.5637 46.4128 40.8389 46.6836 40.8389 47.022C40.8389 47.3604 40.5637 47.6311 40.2282 47.6311C39.8926 47.6311 39.6174 47.3604 39.6174 47.022C39.6174 46.6836 39.8926 46.4128 40.2282 46.4128Z" fill="white" style="fill:white;fill-opacity:1;"/>
<path d="M24.5705 46.819C24.906 46.819 25.1812 47.0897 25.1812 47.4281C25.1812 47.7665 24.906 48.0372 24.5705 48.0372C24.2349 48.0372 23.9597 47.7665 23.9597 47.4281C23.9597 47.0897 24.2349 46.819 24.5705 46.819Z" fill="white" style="fill:white;fill-opacity:1;"/>
</g>
<defs>
<linearGradient id="paint0_linear_141_38044" x1="30" y1="0" x2="30" y2="60" gradientUnits="userSpaceOnUse">
<stop stop-color="#FD661F" stop-opacity="0.85" style="stop-color:#FD661F;stop-color:color(display-p3 0.9922 0.4000 0.1216);stop-opacity:0.85;"/>
<stop offset="1" stop-color="#FFA337" style="stop-color:#FFA337;stop-color:color(display-p3 1.0000 0.6380 0.2167);stop-opacity:1;"/>
</linearGradient>
<clipPath id="clip0_141_38044">
<rect width="40" height="40" fill="white" style="fill:white;fill-opacity:1;" transform="translate(10 10)"/>
</clipPath>
</defs>
</svg>
