<svg width="60" height="60" viewBox="0 0 60 60" fill="none" xmlns="http://www.w3.org/2000/svg">
<circle cx="30" cy="30" r="30" fill="url(#paint0_linear_141_38016)" style=""/>
<g clip-path="url(#clip0_141_38016)">
<path d="M46.7354 34.7229H44.7464V19.5963C44.7464 18.4073 43.7487 17.4165 42.5605 17.4165C41.3724 17.4165 40.3747 18.4073 40.3747 19.5963V26.9284C40.3747 27.589 39.843 28.1835 39.1144 28.1835C38.4514 28.1835 37.854 27.655 37.854 26.9284V23.8239C37.854 22.3706 36.6594 21.1156 35.1365 21.1156H33.3444V12.3963C33.3444 12.1982 33.1475 12 32.944 12H25.5856C24.1283 12 22.8024 12.8587 22.205 14.1138C21.5421 12.8587 20.2817 12 18.8245 12H11.4004C11.1969 12 11 12.1982 11 12.3963V28.5798C11 28.778 11.1969 28.9761 11.4004 28.9761H18.2272C14.781 30.4954 12.3916 33.9303 12.3916 37.8936C12.3916 43.244 16.7699 47.6037 22.1394 47.6037C24.9226 47.6037 27.3776 46.4807 29.1696 44.6312C29.1696 44.6312 29.2353 44.6312 29.2353 44.5651C32.7471 40.8 32.8127 34.9872 29.2353 31.222L29.1696 31.156C28.3097 30.2312 27.2463 29.5046 26.0517 28.9761H32.8784C33.0753 28.9761 33.2788 28.778 33.2788 28.5798V21.9743H35.1365C36.1999 21.9743 36.9941 22.833 36.9941 23.8239V26.9284C36.9941 28.0514 37.9197 28.9761 39.0487 28.9761C40.1778 28.9761 41.1033 28.0514 41.1033 26.9284V19.5963C41.1033 18.8697 41.7006 18.2752 42.4293 18.2752C43.1579 18.2752 43.7552 18.8697 43.7552 19.5963V34.789H41.7663C40.4403 34.789 39.4491 35.8459 39.4491 37.1009V41.989C39.4491 44.6312 41.5694 46.745 44.2213 46.745C46.8732 46.745 48.9934 44.6312 48.9934 41.989V37.1009C49.1247 35.7798 48.0679 34.7229 46.7419 34.7229H46.7354ZM25.5856 12.7927H32.5436V24.8807H25.4477C24.2531 24.8807 23.2619 25.4092 22.5989 26.2679V15.7651C22.5989 14.1138 23.9249 12.7927 25.579 12.7927H25.5856ZM31.0864 37.4972H27.4433C27.4433 36.1101 27.2463 34.789 26.9116 33.5339C27.6402 33.1376 28.3032 32.6752 28.9005 32.0807C30.1608 33.5339 31.0207 35.3835 31.0864 37.4972ZM28.9005 43.7064C28.3032 43.1119 27.6402 42.6495 26.9116 42.2532C27.2463 41.0642 27.4433 39.6771 27.4433 38.2899H31.0864C31.0207 40.3376 30.1608 42.2532 28.9005 43.7064ZM13.1859 38.2899H16.829C16.829 39.6771 17.0259 40.9982 17.3607 42.2532C16.6321 42.6495 15.9691 43.1119 15.3717 43.7064C14.1114 42.2532 13.3172 40.3376 13.1859 38.2899ZM15.3717 32.0807C15.9691 32.6752 16.6321 33.1376 17.3607 33.5339C17.0325 34.7229 16.829 36.1101 16.829 37.4972H13.1859C13.3172 35.3835 14.1114 33.5339 15.3717 32.0807ZM21.739 33.9303C20.5443 33.8642 19.4218 33.6 18.3584 33.1376C18.5554 32.5431 18.7589 32.0147 19.0214 31.5523C19.75 30.0991 20.6756 29.2404 21.6733 29.1083L21.739 33.9303ZM21.739 34.7229V37.4312H17.6955C17.6955 36.1761 17.8924 34.9872 18.1615 33.8642C19.2906 34.3927 20.4787 34.6569 21.739 34.7229ZM21.739 38.2899V40.9982C20.4787 41.0642 19.284 41.3284 18.1615 41.8569C17.8989 40.7339 17.6955 39.545 17.6955 38.2899H21.739ZM21.739 41.8569V46.745C20.7478 46.5468 19.8157 45.6881 19.0871 44.3009C18.8245 43.8385 18.621 43.244 18.4241 42.7156C19.4218 42.1872 20.5443 41.9229 21.739 41.8569ZM22.5989 41.8569C23.7936 41.9229 24.916 42.1872 25.9794 42.6495C25.7825 43.244 25.579 43.7725 25.3165 44.2349C24.5878 45.6881 23.6623 46.5468 22.5989 46.6789V41.8569ZM22.5989 41.0642V38.356H26.6424C26.6424 39.611 26.4455 40.8 26.1764 41.9229C25.0473 41.3945 23.8592 41.0642 22.5989 41.0642ZM22.5989 37.4972V34.789C23.8592 34.7229 25.0539 34.4587 26.1764 33.9303C26.4389 35.0532 26.6424 36.2422 26.6424 37.4972H22.5989ZM22.5989 33.9303V29.0422C23.5966 29.2404 24.5222 30.0991 25.2508 31.4862C25.5134 31.9486 25.7169 32.5431 25.9138 33.0716C24.8504 33.6 23.7279 33.8642 22.5989 33.9303ZM17.6298 32.7413C17.0325 32.411 16.5008 31.9486 15.9756 31.4862C16.9668 30.5615 18.2272 29.8349 19.5531 29.3725C18.6932 30.2312 18.0302 31.4862 17.6298 32.7413ZM17.6298 43.0459C18.0302 44.2349 18.6932 45.4899 19.5531 46.4147C18.1615 46.0183 16.9668 45.2917 15.9756 44.3009C16.5073 43.8385 17.039 43.4422 17.6298 43.0459ZM26.6424 43.0459C27.2398 43.3761 27.7715 43.8385 28.2966 44.3009C27.2988 45.2257 26.0451 45.9523 24.7191 46.4147C25.6447 45.4899 26.242 44.2349 26.6424 43.0459ZM26.6424 32.7413C26.242 31.5523 25.6447 30.2972 24.7191 29.3725C26.1107 29.7688 27.3054 30.4954 28.2966 31.4862C27.8305 31.9486 27.2332 32.345 26.6424 32.7413ZM18.7589 12.7927C20.413 12.7927 21.739 14.1138 21.739 15.7651V26.2018C21.076 25.3431 20.0126 24.8147 18.8901 24.8147H11.7943V12.7927H18.7589ZM11.7943 25.6734H18.8901C20.3474 25.6734 21.5421 26.7303 21.739 28.1835H11.7943V25.6734ZM32.5436 28.1174H22.5989C22.7958 26.7303 23.9905 25.6073 25.4477 25.6073H32.5436V28.1174ZM46.7288 35.5817C47.5887 35.5817 48.2517 36.2422 48.2517 37.1009V38.0917H44.7399V35.5817H46.7288ZM41.891 35.5817H43.8799V38.0917H40.3681V37.1009C40.3681 36.2422 41.0967 35.5817 41.891 35.5817ZM44.346 45.8862C42.1601 45.8862 40.4338 44.1028 40.4338 41.989V38.8844H43.9456V40.1395C43.9456 40.3376 44.1425 40.5358 44.346 40.5358C44.5495 40.5358 44.7464 40.3376 44.7464 40.1395V38.8844H48.2582V41.989C48.2582 44.1688 46.4662 45.8862 44.346 45.8862Z" fill="white" style="fill:white;fill-opacity:1;"/>
<path d="M13.455 23.6257H20.0848C20.2817 23.6257 20.4852 23.4275 20.4852 23.2293C20.4852 23.0312 20.2883 22.833 20.0848 22.833H13.455C13.2581 22.833 13.0546 23.0312 13.0546 23.2293C13.0546 23.4275 13.2515 23.6257 13.455 23.6257Z" fill="white" style="fill:white;fill-opacity:1;"/>
<path d="M13.455 21.9743H20.0848C20.2817 21.9743 20.4852 21.7761 20.4852 21.578C20.4852 21.3798 20.2883 21.1816 20.0848 21.1816H13.455C13.2581 21.1816 13.0546 21.3798 13.0546 21.578C13.0546 21.7761 13.2515 21.9743 13.455 21.9743Z" fill="white" style="fill:white;fill-opacity:1;"/>
<path d="M13.455 20.3229H20.0848C20.2817 20.3229 20.4852 20.1248 20.4852 19.9266C20.4852 19.7284 20.2883 19.5303 20.0848 19.5303H13.455C13.2581 19.5303 13.0546 19.7284 13.0546 19.9266C13.0546 20.1248 13.2515 20.3229 13.455 20.3229Z" fill="white" style="fill:white;fill-opacity:1;"/>
<path d="M13.455 18.6716H20.0848C20.2817 18.6716 20.4852 18.4734 20.4852 18.2752C20.4852 18.0771 20.2883 17.8789 20.0848 17.8789H13.455C13.2581 17.8789 13.0546 18.0771 13.0546 18.2752C13.0546 18.4734 13.2515 18.6716 13.455 18.6716Z" fill="white" style="fill:white;fill-opacity:1;"/>
<path d="M13.455 17.0202H16.7699C16.9668 17.0202 17.1703 16.822 17.1703 16.6239C17.1703 16.4257 16.9734 16.2275 16.7699 16.2275H13.455C13.2581 16.2275 13.0546 16.4257 13.0546 16.6239C13.0546 16.822 13.2515 17.0202 13.455 17.0202Z" fill="white" style="fill:white;fill-opacity:1;"/>
<path d="M24.2597 23.6257H30.8895C31.0864 23.6257 31.2899 23.4275 31.2899 23.2293C31.2899 23.0312 31.093 22.833 30.8895 22.833H24.2597C24.0628 22.833 23.8593 23.0312 23.8593 23.2293C23.7936 23.4275 23.9905 23.6257 24.2597 23.6257Z" fill="white" style="fill:white;fill-opacity:1;"/>
<path d="M24.2597 21.9743H30.8895C31.0864 21.9743 31.2899 21.7761 31.2899 21.578C31.2899 21.3798 31.093 21.1816 30.8895 21.1816H24.2597C24.0628 21.1816 23.8593 21.3798 23.8593 21.578C23.7936 21.7761 23.9905 21.9743 24.2597 21.9743Z" fill="white" style="fill:white;fill-opacity:1;"/>
<path d="M24.2597 20.3229H30.8895C31.0864 20.3229 31.2899 20.1248 31.2899 19.9266C31.2899 19.7284 31.093 19.5303 30.8895 19.5303H24.2597C24.0628 19.5303 23.8593 19.7284 23.8593 19.9266C23.7936 20.1248 23.9905 20.3229 24.2597 20.3229Z" fill="white" style="fill:white;fill-opacity:1;"/>
<path d="M24.2597 18.6716H30.8895C31.0864 18.6716 31.2899 18.4734 31.2899 18.2752C31.2899 18.0771 31.093 17.8789 30.8895 17.8789H24.2597C24.0628 17.8789 23.8593 18.0771 23.8593 18.2752C23.7936 18.4734 23.9905 18.6716 24.2597 18.6716Z" fill="white" style="fill:white;fill-opacity:1;"/>
<path d="M24.2597 17.0202H27.5746C27.7715 17.0202 27.975 16.822 27.975 16.6239C27.975 16.4257 27.7781 16.2275 27.5746 16.2275H24.2597C24.0627 16.2275 23.8593 16.4257 23.8593 16.6239C23.8593 16.822 23.9905 17.0202 24.2597 17.0202Z" fill="white" style="fill:white;fill-opacity:1;"/>
<path d="M38.7139 16.1615C39.8429 16.1615 40.7685 15.2367 40.7685 14.1137C40.7685 12.9908 39.8364 12.066 38.7139 12.066C37.5914 12.066 36.6593 12.9908 36.6593 14.1137C36.6593 15.2367 37.5849 16.1615 38.7139 16.1615ZM38.7139 12.8587C39.3769 12.8587 39.9742 13.3871 39.9742 14.1137C39.9742 14.7743 39.4425 15.3688 38.7139 15.3688C38.0509 15.3688 37.4536 14.8404 37.4536 14.1137C37.5192 13.4532 38.0509 12.8587 38.7139 12.8587Z" fill="white" style="fill:white;fill-opacity:1;"/>
<path d="M34.9986 42.1871C33.4101 42.1871 32.0841 43.5082 32.0841 45.0936C32.0841 46.6789 33.4101 48 34.9986 48C36.5871 48 37.9131 46.6789 37.9131 45.0936C37.9131 43.5082 36.5871 42.1871 34.9986 42.1871ZM34.9986 47.1413C33.8696 47.1413 32.944 46.2165 32.944 45.0936C32.944 43.9706 33.8696 43.0458 34.9986 43.0458C36.1276 43.0458 37.0532 43.9706 37.0532 45.0936C37.0532 46.2165 36.1276 47.1413 34.9986 47.1413Z" fill="white" style="fill:white;fill-opacity:1;"/>
<path d="M47.6609 13.7174C47.9891 13.7174 48.2583 13.9816 48.2583 14.3119C48.2583 14.6422 47.9891 14.9064 47.6609 14.9064C47.3327 14.9064 47.0636 14.6422 47.0636 14.3119C47.0636 13.9816 47.3327 13.7174 47.6609 13.7174Z" fill="white" style="fill:white;fill-opacity:1;"/>
<path d="M36.0621 28.9762C36.3903 28.9762 36.6594 29.2404 36.6594 29.5707C36.6594 29.901 36.3903 30.1652 36.0621 30.1652C35.7339 30.1652 35.4647 29.901 35.4647 29.5707C35.4647 29.2404 35.7339 28.9762 36.0621 28.9762Z" fill="white" style="fill:white;fill-opacity:1;"/>
<path d="M36.8563 35.5817C37.1845 35.5817 37.4536 35.8459 37.4536 36.1762C37.4536 36.5064 37.1845 36.7707 36.8563 36.7707C36.528 36.7707 36.2589 36.5064 36.2589 36.1762C36.2589 35.8459 36.528 35.5817 36.8563 35.5817Z" fill="white" style="fill:white;fill-opacity:1;"/>
<path d="M46.801 30.2312C47.1292 30.2312 47.3983 30.4954 47.3983 30.8257C47.3983 31.156 47.1292 31.4202 46.801 31.4202C46.4727 31.4202 46.2036 31.156 46.2036 30.8257C46.2036 30.4954 46.4727 30.2312 46.801 30.2312Z" fill="white" style="fill:white;fill-opacity:1;"/>
<path d="M40.565 46.745C40.8932 46.745 41.1623 47.0092 41.1623 47.3395C41.1623 47.6698 40.8932 47.934 40.565 47.934C40.2368 47.934 39.9677 47.6698 39.9677 47.3395C39.9677 47.0092 40.2368 46.745 40.565 46.745Z" fill="white" style="fill:white;fill-opacity:1;"/>
<path d="M14.0523 46.3486C14.3805 46.3486 14.6496 46.6129 14.6496 46.9431C14.6496 47.2734 14.3805 47.5376 14.0523 47.5376C13.7241 47.5376 13.455 47.2734 13.455 46.9431C13.455 46.6129 13.7241 46.3486 14.0523 46.3486Z" fill="white" style="fill:white;fill-opacity:1;"/>
<path d="M12.3917 31.09C12.7199 31.09 12.989 31.3542 12.989 31.6845C12.989 32.0147 12.7199 32.279 12.3917 32.279C12.0634 32.279 11.7943 32.0147 11.7943 31.6845C11.7943 31.3542 12.0634 31.09 12.3917 31.09Z" fill="white" style="fill:white;fill-opacity:1;"/>
</g>
<defs>
<linearGradient id="paint0_linear_141_38016" x1="30" y1="0" x2="30" y2="60" gradientUnits="userSpaceOnUse">
<stop stop-color="#FD661F" stop-opacity="0.85" style="stop-color:#FD661F;stop-color:color(display-p3 0.9922 0.4000 0.1216);stop-opacity:0.85;"/>
<stop offset="1" stop-color="#FFA337" style="stop-color:#FFA337;stop-color:color(display-p3 1.0000 0.6380 0.2167);stop-opacity:1;"/>
</linearGradient>
<clipPath id="clip0_141_38016">
<rect width="38" height="36" fill="white" style="fill:white;fill-opacity:1;" transform="translate(11 12)"/>
</clipPath>
</defs>
</svg>
