<svg width="60" height="60" viewBox="0 0 60 60" fill="none" xmlns="http://www.w3.org/2000/svg">
<circle cx="30" cy="30" r="30" fill="url(#paint0_linear_141_38063)" style=""/>
<g clip-path="url(#clip0_141_38063)">
<path d="M16.3997 20.1225H34.8077C35.2372 20.1225 35.6054 19.7551 35.6054 19.3266C35.6054 18.898 35.2372 18.5306 34.8077 18.5306H16.3997C15.9702 18.5306 15.6021 18.898 15.6021 19.3266C15.6021 19.7551 15.9702 20.1225 16.3997 20.1225Z" fill="white" style="fill:white;fill-opacity:1;"/>
<path d="M16.3997 24.7143H30.2057C30.6352 24.7143 31.0034 24.3469 31.0034 23.9184C31.0034 23.4898 30.6352 23.1224 30.2057 23.1224H16.3997C15.9702 23.1224 15.6021 23.4898 15.6021 23.9184C15.6021 24.3469 15.9702 24.7143 16.3997 24.7143Z" fill="white" style="fill:white;fill-opacity:1;"/>
<path d="M16.3997 29.3061H27.9354C28.3649 29.3061 28.7331 28.9387 28.7331 28.5102C28.7331 28.0816 28.3649 27.7142 27.9354 27.7142H16.3997C15.9702 27.7142 15.6021 28.0816 15.6021 28.5102C15.6021 28.9387 15.9702 29.3061 16.3997 29.3061Z" fill="white" style="fill:white;fill-opacity:1;"/>
<path d="M47.0796 14H11.7977C11.3682 14 11 14.3673 11 14.7959V37.7551C11 38.1837 11.3682 38.551 11.7977 38.551H33.2736V46.2041C33.2736 46.5102 33.4577 46.8163 33.7645 46.9388C34.0713 47.0612 34.3781 47 34.6236 46.7551L37.937 43.449L41.2504 46.7551C41.4959 47 41.8027 47.0612 42.1095 46.9388C42.4163 46.8163 42.6003 46.5714 42.6003 46.2041V38.4898H47.2023C47.6318 38.4898 48 38.1224 48 37.6939V14.7347C47.8159 14.3061 47.4478 14 47.0796 14ZM37.8756 26.2449C41.1891 26.2449 43.7048 29.2449 43.1526 32.4898C42.7231 35 40.5141 36.9592 37.8756 36.9592C36.6484 36.9592 35.4826 36.5306 34.5008 35.7959C32.9055 34.5102 32.1692 32.4898 32.5987 30.5306C33.0896 28.0816 35.2371 26.2449 37.8756 26.2449ZM40.9436 44.2449L38.4279 41.7347C38.1211 41.4286 37.6302 41.4286 37.3234 41.7347L34.8076 44.2449V37.7551C36.7711 38.7347 39.0415 38.7347 40.9436 37.7551V44.2449ZM46.2819 36.9592H42.4163V36.7143C42.7844 36.4082 43.0299 36.102 43.398 35.6735C43.7048 35.2449 44.0116 34.6939 44.257 34.1429C46.0978 29.6122 42.7231 24.6531 37.8756 24.6531C33.0282 24.6531 29.6534 29.6122 31.4942 34.1429C31.9237 35.1224 32.5373 36.0408 33.2736 36.7143V36.9592H12.534V15.5306H46.2819V36.9592Z" fill="white" style="fill:white;fill-opacity:1;"/>
</g>
<defs>
<linearGradient id="paint0_linear_141_38063" x1="30" y1="0" x2="30" y2="60" gradientUnits="userSpaceOnUse">
<stop stop-color="#FD661F" stop-opacity="0.85" style="stop-color:#FD661F;stop-color:color(display-p3 0.9922 0.4000 0.1216);stop-opacity:0.85;"/>
<stop offset="1" stop-color="#FFA337" style="stop-color:#FFA337;stop-color:color(display-p3 1.0000 0.6380 0.2167);stop-opacity:1;"/>
</linearGradient>
<clipPath id="clip0_141_38063">
<rect width="37" height="33" fill="white" style="fill:white;fill-opacity:1;" transform="translate(11 14)"/>
</clipPath>
</defs>
</svg>
